<svg xmlns="http://www.w3.org/2000/svg" width="512" height="512" viewBox="0 0 463.064 463.064"><defs><linearGradient id="a" x1="0%" x2="100%" y1="0%" y2="100%"><stop offset="0%" stop-color="#ff8a00"/><stop offset="100%" stop-color="#7a1cff"/></linearGradient></defs><rect width="463.064" height="463.064" fill="url(#a)" rx="40" ry="40"/><path fill="#fff" stroke="#fff" stroke-width=".9" d="M215.034 193.107h-47.988a35.652 35.652 0 0 0-4.746-10.68q-3.164-4.745-7.844-7.975a36.234 36.234 0 0 0-10.613-4.944q-5.932-1.714-13.051-1.714-14.107 0-24.588 6.921a42.743 42.743 0 0 0-14.46 16.57 56.81 56.81 0 0 0-1.69 3.601 68.211 68.211 0 0 0-4.584 16.637 102.22 102.22 0 0 0-1.085 15.334 103.837 103.837 0 0 0 1.3 16.964 68.843 68.843 0 0 0 4.237 15.204 48.113 48.113 0 0 0 9.476 14.923 39.847 39.847 0 0 0 6.41 5.446 41.176 41.176 0 0 0 19.3 6.761 56.596 56.596 0 0 0 5.815.291q13.052 0 22.082-4.284a30.746 30.746 0 0 0 13.712-12.195 34.979 34.979 0 0 0 4.638-16.611 47.01 47.01 0 0 0 .042-1.978l8.832 1.187h-47.724v-34.542h84.639v25.84q0 26.368-11.14 45.22a74.273 74.273 0 0 1-30.718 28.872 90.747 90.747 0 0 1-29.446 9.017 115.455 115.455 0 0 1-15.444 1.003q-28.081 0-49.373-12.195-21.29-12.195-33.156-34.739-11.17-21.222-11.825-49.923a157.982 157.982 0 0 1-.041-3.602q0-26.827 8.757-47.053a88.36 88.36 0 0 1 3.834-7.791 90.662 90.662 0 0 1 18.83-23.872 83.823 83.823 0 0 1 14.986-10.669 93.965 93.965 0 0 1 40.98-11.68 112.072 112.072 0 0 1 6.48-.185 103.413 103.413 0 0 1 25.25 2.977 89.6 89.6 0 0 1 6.523 1.9 85.459 85.459 0 0 1 26.038 13.844q11.404 8.965 18.456 21.225a71.23 71.23 0 0 1 8.9 26.895Zm200.654 7.119H367.7a41.604 41.604 0 0 0-3.888-13.381q-2.967-5.999-7.91-10.218-4.944-4.218-11.537-6.526a44.451 44.451 0 0 0-14.701-2.307 45.413 45.413 0 0 0-17.412 3.184 38.27 38.27 0 0 0-7.174 3.869 43.091 43.091 0 0 0-13.974 16.314 57.286 57.286 0 0 0-1.846 3.989 69.05 69.05 0 0 0-4.4 16.168 104.982 104.982 0 0 0-1.137 15.934q0 18.717 5.227 31.717a47.568 47.568 0 0 0 9.05 14.756 37.552 37.552 0 0 0 7.146 6.064 41.904 41.904 0 0 0 20.01 6.495 56.132 56.132 0 0 0 4.314.162q7.778 0 14.238-2.043a35.632 35.632 0 0 0 11.404-5.933q4.944-3.889 8.174-9.492 3.23-5.603 4.416-12.722h47.988q-1.317 13.052-7.514 25.84a78.825 78.825 0 0 1-17.204 23.138 80.7 80.7 0 0 1-21.909 14.507 98.109 98.109 0 0 1-4.789 2.037 88.058 88.058 0 0 1-21.94 5.397 116.852 116.852 0 0 1-13.918.8 104.471 104.471 0 0 1-26.714-3.311 89.72 89.72 0 0 1-20.945-8.423 83.312 83.312 0 0 1-31.664-31.443 99.597 99.597 0 0 1-1.559-2.768 95.083 95.083 0 0 1-8.953-24.08q-3.242-14.043-3.242-30.698A145.04 145.04 0 0 1 237 204.759q1.969-12.54 6.272-23.222a88.674 88.674 0 0 1 4.393-9.326 87.814 87.814 0 0 1 18.303-23.493 81.24 81.24 0 0 1 15.182-10.784 94.488 94.488 0 0 1 40.416-11.461 112.625 112.625 0 0 1 6.848-.206 110.236 110.236 0 0 1 25.213 2.78 94.605 94.605 0 0 1 7.745 2.163q15.162 4.944 26.697 14.436 11.536 9.493 18.655 23.203 7.12 13.712 8.964 31.378Z"/></svg>
